<svg height="516pt" viewBox="0 -36 516.2 516" width="516pt" xmlns="http://www.w3.org/2000/svg"><path d="m266.898438.0859375h195.722656c29.480468 0 53.378906 23.8984375 53.378906 53.3789065v195.726562c0 29.480469-23.898438 53.378906-53.378906 53.378906h-195.722656c-29.484376 0-53.382813-23.898437-53.382813-53.378906v-195.726562c0-29.480469 23.898437-53.3789065 53.382813-53.3789065zm0 0" fill="#394d5c"/><path d="m391.449219 151.328125c0 14.738281-11.949219 26.6875-26.691407 26.6875-14.738281 0-26.6875-11.949219-26.6875-26.6875 0-14.742187 11.949219-26.691406 26.6875-26.691406 14.742188 0 26.691407 11.949219 26.691407 26.691406zm0 0" fill="#e9686a"/><path d="m320.277344 71.257812c0 14.742188-11.949219 26.691407-26.691406 26.691407-14.738282 0-26.6875-11.949219-26.6875-26.691407 0-14.738281 11.949218-26.6875 26.6875-26.6875 14.742187 0 26.691406 11.949219 26.691406 26.6875zm0 0" fill="#e9686a"/><path d="m462.621094 231.398438c0 14.738281-11.949219 26.6875-26.691406 26.6875-14.738282 0-26.6875-11.949219-26.6875-26.6875 0-14.742188 11.949218-26.691407 26.6875-26.691407 14.742187 0 26.691406 11.949219 26.691406 26.691407zm0 0" fill="#e9686a"/><path d="m53.378906 142.429688h195.722656c29.484376 0 53.382813 23.898437 53.382813 53.378906v195.726562c0 29.480469-23.898437 53.378906-53.382813 53.378906h-195.722656c-29.480468 0-53.378906-23.898437-53.378906-53.378906v-195.726562c0-29.480469 23.898438-53.378906 53.378906-53.378906zm0 0" fill="#cfdfe8"/><g fill="#e9686a"><path d="m177.929688 293.671875c0 14.742187-11.949219 26.691406-26.6875 26.691406-14.742188 0-26.691407-11.949219-26.691407-26.691406 0-14.738281 11.949219-26.6875 26.691407-26.6875 14.738281 0 26.6875 11.949219 26.6875 26.6875zm0 0"/><path d="m106.757812 213.601562c0 14.742188-11.949218 26.691407-26.6875 26.691407-14.742187 0-26.691406-11.949219-26.691406-26.691407 0-14.738281 11.949219-26.6875 26.691406-26.6875 14.738282 0 26.6875 11.949219 26.6875 26.6875zm0 0"/><path d="m249.101562 213.601562c0 14.742188-11.949218 26.691407-26.6875 26.691407-14.742187 0-26.691406-11.949219-26.691406-26.691407 0-14.738281 11.949219-26.6875 26.691406-26.6875 14.738282 0 26.6875 11.949219 26.6875 26.6875zm0 0"/><path d="m106.757812 373.742188c0 14.738281-11.949218 26.6875-26.6875 26.6875-14.742187 0-26.691406-11.949219-26.691406-26.6875 0-14.742188 11.949219-26.691407 26.691406-26.691407 14.738282 0 26.6875 11.949219 26.6875 26.691407zm0 0"/><path d="m249.101562 373.742188c0 14.738281-11.949218 26.6875-26.6875 26.6875-14.742187 0-26.691406-11.949219-26.691406-26.6875 0-14.742188 11.949219-26.691407 26.691406-26.691407 14.738282 0 26.6875 11.949219 26.6875 26.691407zm0 0"/></g><path d="m53.378906 115.742188c-4.910156.003906-8.894531-3.976563-8.894531-8.886719 0-.003907 0-.007813 0-.011719 0-39.910156 19.539063-71.171875 44.480469-71.171875 4.914062 0 8.898437 3.984375 8.898437 8.898437 0 4.910157-3.984375 8.894532-8.898437 8.894532-12.621094 0-26.6875 21.921875-26.6875 53.378906 0 4.914062-3.976563 8.894531-8.890625 8.898438 0 0-.003907 0-.007813 0zm0 0" fill="#7d8d9c"/><path d="m97.863281 106.84375c-4.914062.003906-8.894531-3.976562-8.898437-8.886719 0 0 0-.003906 0-.007812.03125-29.46875 23.914062-53.347657 53.378906-53.378907 4.914062 0 8.898438 3.980469 8.898438 8.894532 0 4.914062-3.984376 8.898437-8.898438 8.898437-19.644531.019531-35.566406 15.941407-35.585938 35.585938.003907 4.910156-3.976562 8.894531-8.886718 8.894531-.003906 0-.007813 0-.007813 0zm0 0" fill="#7d8d9c"/></svg>