<?xml version="1.0" encoding="UTF-8"?>
<svg width="34" height="33" xmlns="http://www.w3.org/2000/svg" xmlns:xlink="http://www.w3.org/1999/xlink">
	<defs>
		<path
			d="M19.208 7.31l-3.644 8.4-8.36.802c-1.113.107-1.311.761-.466 1.464l6.606 5.49-2.43 8.861c-.292 1.065.201 1.414 1.102.777l7.985-5.64 7.984 5.64c.908.642 1.394.289 1.102-.777l-2.43-8.861 6.606-5.49c.837-.696.637-1.358-.466-1.464l-8.362-.802-3.642-8.4c-.437-1.008-1.147-1.01-1.585 0zm7.275 5.583l6.6.633c3.744.36 4.997 4.348 2.098 6.757l-5.119 4.254 1.918 6.997c1.034 3.771-2.51 6.293-5.726 4.02l-6.253-4.417-6.254 4.418c-3.205 2.264-6.761-.246-5.726-4.02l1.918-6.998-5.119-4.254c-2.907-2.416-1.658-6.397 2.098-6.757l6.598-.633 2.94-6.776c1.482-3.42 5.608-3.417 7.09 0l2.937 6.776z"
			id="a"/>
	</defs>
	<g transform="translate(-3 -3.5)" fill="none" fill-rule="evenodd">
		<path d="M0 0h40v40H0z"/>
		<use fill="#fea000" fill-rule="nonzero" xlink:href="#a"/>
	</g>
</svg>
